# xmcd CD database file
#
# Track frame offsets:
#	150
#	20342
#	37935
#
# Disc length: 771 seconds
#
# Revision: 0
# Processed by: cddbd v1.5.1PL0 Copyright (c) Steve Scherf et al.
# Submitted via: CDex 1.51
#
DISCID=16030103
DTITLE=中澤裕子 - DO MY BEST
DYEAR=2004
DGENRE=JPop
TTITLE0=DO MY BEST
TTITLE1=きっとどこかに赤い糸
TTITLE2=DO MY BEST（Instrumental）
EXTD=YEAR: 2004
EXTT0=
EXTT1=
EXTT2=
PLAYORDER=
